<?xml version="1.0" encoding="utf-8"?>
<svg id="Layer_1" data-name="Layer 1" viewBox="76.387 188.359 922.396 166.265" xmlns="http://www.w3.org/2000/svg">
  <defs>
    <style>.cls-1{fill:#58595b;}.cls-2{fill:#00a693;}</style>
  </defs>
  <path class="cls-1" d="M377.45,251H347.27l-1.7,15.39H371.2a6.28,6.28,0,0,1,6.25,6.26v14.06H364.77a6.3,6.3,0,0,1-6.25-6.28v-9.83h-13l-2.14,9.83c-.87,3.32-4.14,6.28-7.57,6.28h-10a6.31,6.31,0,0,1-6.26-6.28V258H304.14l-1.07,22.46a6.39,6.39,0,0,1-6.19,6.28h-15.7a6.3,6.3,0,0,1-6.25-6.28V258.13L259.52,258l-1.07,22.46a6.39,6.39,0,0,1-6.19,6.28H199.05a6.26,6.26,0,0,1-6.19-6.26v-14h12.66a6.26,6.26,0,0,1,6.24,6.25v10h16.48V267.54a16.47,16.47,0,0,0-16.48-16.49H189.59c-11.81,11.81-13.22,18.54-13.22,26.72v9a16.43,16.43,0,0,0,16.49,16.42h17c-2.32,2.89-8.08,7.3-17.95,13.55l10,11c13.5-9.37,20.89-16.23,23.67-24.48h28a16.38,16.38,0,0,0,13.11-6.54,16.4,16.4,0,0,0,13.12,6.54h18.39a16.38,16.38,0,0,0,13.11-6.54,16.41,16.41,0,0,0,13.12,6.54H334a16.39,16.39,0,0,0,13.13-6.54,16.42,16.42,0,0,0,13.13,6.54h20.41c11.8-11.8,13.19-18.56,13.19-26.74v-9A16.45,16.45,0,0,0,377.45,251Z"/>
  <polygon class="cls-1" points="274.39 327.67 292.94 327.67 292.94 336.21 310.03 336.21 310.03 327.67 310.03 319.14 310.03 314.1 274.39 314.1 274.39 327.67"/>
  <rect class="cls-1" x="230.22" y="314.1" width="35.64" height="13.57"/>
  <rect class="cls-1" x="125.09" y="237.25" width="35.64" height="13.57"/>
  <path class="cls-1" d="M155,281.07a6.4,6.4,0,0,1-6.22,6.26H129.36c-3.43,0-6.19-2-6.19-5.41V279.5c0-7.08-.5-17.57-1.24-21.41L105.39,258c1,5.55,1.29,16.62,1.29,22.88v13.86c0,7.89.73,8.83-18.68,22.56l10,11c13.32-9.24,21.25-16.59,23.68-24.51h28.38c5.34,0,12.58-2.41,15.64-6,2.93-3.47,5.72-7.75,5.72-16.65V258H156Z"/>
  <rect class="cls-1" x="645.49" y="314.1" width="35.64" height="13.57"/>
  <path class="cls-1" d="M553.3,258c1.05,5.55,1.34,16,1.34,22.27v27.25H525.06a6.28,6.28,0,0,1-6.19-6.26V269.45l-15.43-.19-1.06,38.27c-.29,9,7.41,16.43,16.49,16.43h39c11.83-11.78,13.23-18.54,13.23-26.71V274.68A92.7,92.7,0,0,0,569.82,258Z"/>
  <rect class="cls-1" x="529.24" y="251.23" width="13.6" height="13.57"/>
  <path class="cls-1" d="M729.72,225.08h-16.6c.66,3.36,1,10.08,1.18,26,.07,5.9.12,11.35.13,15.39,0,1.77,0,3.27,0,4.4,0,.77,0,1.38,0,1.81v14.09H702.54a1.77,1.77,0,0,1-.33,0h-10a1.56,1.56,0,0,1-.31,0,6.3,6.3,0,0,1-6-6.26s-.23-13.09-.51-18.8c-.15-3.11.1-1.65-.3-3.66H669c.07,6.11.26,16.61.26,22.87v1a6.24,6.24,0,0,1-5.66,4.88H598.94a6.28,6.28,0,0,1-6.2-6.26v-14h12.68a6.25,6.25,0,0,1,6.24,6.24v10h16.46V267.53A16.46,16.46,0,0,0,611.66,251H589.49c-11.81,11.81-13.24,18.54-13.24,26.72v9a16.44,16.44,0,0,0,16.49,16.42h17c-2.31,2.91-8.08,7.3-18,13.55l10,11c13.49-9.38,20.89-16.25,23.67-24.49,0,0,0,0,0,0h40.06a16.36,16.36,0,0,0,12.1-6.5c.12.15.23.3.36.44a16.3,16.3,0,0,0,5.92,4.6,15.7,15.7,0,0,0,6.35,1.48h27.41c.58-.57,1.14-1.15,1.65-1.69,5.75-6,8.67-10.66,10.15-15A30.2,30.2,0,0,0,731,276.45V242.27A100.27,100.27,0,0,0,729.72,225.08Z"/>
  <path class="cls-1" d="M474.17,250.78H435.48l.13,15.52h32.27a6.32,6.32,0,0,1,6.29,6.28v14.15H422.08a6.31,6.31,0,0,1-6.24-6.31V242.33A105.48,105.48,0,0,0,414.62,225H397.9c1,5.59,1.35,16.66,1.35,23v38.76a16.56,16.56,0,0,0,16.59,16.56h61.6c11.91-11.87,13.32-18.65,13.32-26.92v-9A16.58,16.58,0,0,0,474.17,250.78Z"/>
  <polygon class="cls-1" points="435.48 245.44 491.23 245.44 495.83 229.91 435.48 229.91 435.48 245.44"/>
  <polygon class="cls-2" points="932.72 300.22 932.72 237.92 983.18 194.98 921.83 218.29 921.83 287.46 893.93 306.65 866.03 287.46 866.03 218.29 804.68 194.98 855.14 237.92 855.14 300.22 883.65 313.73 838.23 344.98 893.93 318.59 949.62 344.98 904.21 313.73 932.72 300.22"/>
  <polygon class="cls-2" points="983.69 202.43 978.81 302.88 949.73 345.02 992 310.47 983.69 202.43"/>
  <polygon class="cls-2" points="804.03 202.43 795.71 310.47 837.98 345.02 808.91 302.88 804.03 202.43"/>
</svg>